<svg width="82" height="114" viewBox="0 0 82 114" fill="none" xmlns="http://www.w3.org/2000/svg">
<g clip-path="url(#clip0_83_1701)">
<g clip-path="url(#clip1_83_1701)">
<path d="M43.761 15.6966C42.3193 17.6544 40.4777 13.4097 39.8792 15.6966C39.7668 16.1228 39.6874 16.5178 39.6147 16.8955L39.5618 16.8158C38.1797 14.9204 37.0224 17.041 34.9856 15.7763C34.6087 15.5407 38.2094 14.6536 37.7697 14.6883C37.7697 14.6883 34.5459 13.1775 32.7868 10.7069C31.0278 8.23637 31.3585 3.73874 32.271 0.291016L33.8185 0.741471C37.8226 1.90573 42.0383 5.35345 43.4237 8.14281C45.0273 11.3722 43.7543 15.662 43.7543 15.662C43.5593 15.8352 43.9098 15.4956 43.761 15.6966Z" fill="#3E7739"/>
<path d="M33.8119 2.56059C33.9179 2.46162 34.0569 2.41047 34.1987 2.41826C34.3405 2.42604 34.4736 2.49213 34.5691 2.60217L35.5048 3.6902C37.6577 6.20334 39.2842 9.16138 40.2794 12.3736C40.3232 12.5156 40.3114 12.67 40.2466 12.8029C40.1818 12.9358 40.0693 13.0363 39.9338 13.0822C39.7983 13.1282 39.651 13.1158 39.5242 13.0479C39.3974 12.98 39.3015 12.8621 39.2577 12.7201C38.3155 9.6575 36.7687 6.83703 34.7179 4.44211L33.7822 3.35409C33.6865 3.24434 33.636 3.09948 33.6415 2.95094C33.6471 2.80239 33.7083 2.66214 33.8119 2.56059V2.56059Z" fill="#396C34"/>
<path d="M40.6695 81.7682C59.2337 81.7682 74.2829 65.9971 74.2829 46.5425C74.2829 27.088 59.2337 11.3169 40.6695 11.3169C22.1054 11.3169 7.05615 27.088 7.05615 46.5425C7.05615 65.9971 22.1054 81.7682 40.6695 81.7682Z" fill="url(#paint0_radial_83_1701)"/>
<path d="M51.1047 80.0423C51.9313 79.7581 52.7579 79.4463 53.5382 79.0998C45.3008 81.2239 36.6016 80.0055 29.1856 75.6889C21.7696 71.3723 16.1852 64.2768 13.5528 55.8256C10.9203 47.3744 11.4344 38.1927 14.9919 30.1222C18.5494 22.0516 24.8872 15.6892 32.734 12.311C31.9008 12.5259 31.0687 12.7742 30.2376 13.056C21.7613 15.9559 14.7313 22.2657 10.6943 30.5974C6.65726 38.9291 5.94384 48.6002 8.71098 57.4831C11.4781 66.366 17.4991 73.7332 25.4495 77.9638C33.3999 82.1945 42.6283 82.9421 51.1047 80.0423V80.0423Z" fill="#FEBB12"/>
<path d="M60.2999 61.3313C60.8385 61.2339 61.3908 61.2575 61.9201 61.4006C62.4286 61.5439 62.9097 61.7783 63.3418 62.0936C63.7753 62.4124 64.1458 62.816 64.433 63.2822C64.7314 63.769 64.9307 64.3152 65.0182 64.8865C65.1016 65.4573 65.0752 66.0398 64.9406 66.5997C64.8061 67.1597 64.566 67.6858 64.2346 68.1471C59.3058 73.8783 53.277 77.3606 46.1483 78.5942C37.6948 80.0565 29.9974 78.1807 23.056 72.967C16.1147 67.7532 11.9475 60.7169 10.5543 51.8579C9.16562 43.0243 10.9577 34.9716 15.9306 27.6996C20.9035 20.4276 27.6156 16.0455 36.0669 14.5532C43.297 13.3035 50.2196 14.6699 56.8347 18.6524C57.258 18.9707 57.6128 19.3785 57.8765 19.8494C58.1402 20.3203 58.3068 20.8438 58.3656 21.3863C58.462 21.9609 58.4485 22.5498 58.3259 23.1188C58.1994 23.6556 57.9749 24.1616 57.6647 24.6088C57.3541 25.0601 56.9607 25.4418 56.5074 25.7315C56.0431 26.0352 55.5263 26.2401 54.9864 26.3344C53.9434 26.4927 52.8816 26.2356 52.0106 25.6136C49.8386 24.3531 47.4804 23.4829 45.034 23.0391C42.5097 22.5868 39.9304 22.5868 37.406 23.0391C31.1943 24.1133 26.249 27.3392 22.57 32.717C18.9351 38.0301 17.6301 43.9426 18.6551 50.4546C19.6801 56.9665 22.7309 62.1398 27.8074 65.9745C32.9059 69.8068 38.5754 71.1836 44.8158 70.1048C49.9413 69.2897 54.6264 66.6004 58.0416 62.5129C58.6658 61.893 59.4519 61.4817 60.2999 61.3313V61.3313Z" fill="url(#paint1_linear_83_1701)"/>
<path d="M53.6771 54.3631C53.998 54.2595 54.3366 54.2311 54.6691 54.2799C54.9832 54.3232 55.2876 54.424 55.5684 54.5779C55.8506 54.7335 56.1001 54.9468 56.3024 55.2051C56.5172 55.4732 56.6751 55.7862 56.7653 56.1233C56.856 56.4579 56.8817 56.8082 56.8408 57.1535C56.7999 57.4987 56.6933 57.8318 56.5273 58.133C54.1114 61.838 50.5361 64.5418 46.4195 65.7769C44.0643 66.5032 41.5956 66.7353 39.1548 66.46C36.7139 66.1847 34.3489 65.4074 32.1951 64.1727C30.0414 62.938 28.1413 61.27 26.6037 59.2644C25.0661 57.2589 23.9212 54.955 23.2346 52.485C21.847 47.5009 22.4033 42.1435 24.7813 37.5888C27.1593 33.0341 31.1647 29.6544 35.9182 28.1916C40.1592 26.8887 44.4014 27.1763 48.6447 29.0544C48.9202 29.2135 49.1608 29.4315 49.351 29.6941C49.5412 29.9566 49.6768 30.2581 49.7491 30.579C49.8493 30.9148 49.883 31.2685 49.8482 31.6185C49.8111 31.9486 49.7146 32.2684 49.5639 32.561C49.4085 32.8549 49.1996 33.1139 48.9489 33.3233C48.6876 33.5394 48.389 33.7006 48.0694 33.798C47.4559 33.9729 46.8022 33.8999 46.2376 33.5936C44.8443 32.9987 43.3656 32.6531 41.8632 32.5714C40.3193 32.4938 38.7742 32.6919 37.2937 33.157C35.5613 33.6858 33.9455 34.5678 32.5389 35.7522C31.1323 36.9366 29.9625 38.4003 29.0967 40.0593C28.2308 41.7183 27.6858 43.5401 27.4929 45.4202C27.3001 47.3003 27.4631 49.2018 27.9728 51.0158C28.7008 53.619 30.1158 55.9537 32.0547 57.7508C33.9936 59.548 36.3775 60.7346 38.9319 61.1739C41.4862 61.6131 44.107 61.2872 46.4923 60.2336C48.8776 59.1801 50.9304 57.4417 52.4141 55.2189C52.7464 54.8106 53.1855 54.5131 53.6771 54.3631V54.3631Z" fill="white"/>
<path d="M1.37216 89.2247C5.21756 84.6439 16.9786 86.3522 23.1551 82.1249C24.4776 81.2274 25.0331 80.1671 24.7752 82.9703C24.2561 87.7244 18.4434 89.6267 14.631 89.7341C13.4242 92.2289 9.67135 110.822 12.7926 111.872C13.2059 112.087 13.6391 111.983 13.7052 112.285C13.7581 113.612 8.80175 115.403 7.78337 110.167C7.16837 106.46 7.45272 92.1492 11.3874 90.337C8.11071 90.3786 5.10514 90.7667 4.03385 92.416C3.19401 93.8332 4.59925 96.1687 6.63603 95.8811C7.77675 95.6663 8.49425 95.1881 8.4149 95.6663C8.3124 96.4251 5.76974 99.4085 3.0353 98.0086C-0.0562312 96.5914 -1.04155 92.17 1.37216 89.2247Z" fill="#255296"/>
<path d="M21.4623 107.638C18.8171 107.524 18.6253 104.475 18.794 102.233C18.8877 101.135 19.04 100.045 19.2503 98.9652C18.7091 99.228 18.1395 99.4211 17.554 99.5404C16.6382 99.6686 15.7223 99.3844 15.4082 98.3761C15.2164 97.6588 15.1007 96.0615 15.5602 95.2576C16.1124 94.1973 17.5441 94.963 17.6334 95.5452C17.9343 97.1633 15.5338 99.0899 19.9479 94.6269C20.3255 94.2072 20.8041 93.902 21.3333 93.7433C21.7645 93.6726 22.2058 93.762 22.5807 93.9961C22.9557 94.2302 23.2407 94.5943 23.3866 95.0254C23.7602 96.4322 22.5203 101.235 22.5104 102.957C24.3885 101.287 29.7416 95.2853 30.7964 94.5472C33.4184 94.2769 25.0994 107.704 21.4623 107.638Z" fill="#255296"/>
<path d="M43.9495 99.8558C43.0137 101.394 41.8234 103.154 40.0743 103.899C38.8674 104.357 37.7036 103.782 37.0026 102.68C36.3054 103.457 35.4232 104.025 34.4467 104.326C33.7701 104.459 33.0704 104.353 32.4575 104.025C31.8446 103.696 31.3533 103.163 31.0609 102.51C29.7383 99.3914 31.6362 90.7912 36.5893 91.7129C36.83 91.7611 37.0635 91.8427 37.2836 91.9555C37.4263 91.1633 37.6875 90.3996 38.0574 89.6928C39.1121 88.1578 41.4068 89.6928 41.6581 91.2347C41.6581 91.55 41.6581 91.8376 41.6581 92.1599C41.387 94.4919 40.5438 96.7095 40.3057 99.3187C40.3057 99.3464 40.3057 99.3845 40.3057 99.4157C42.4252 97.4614 43.9065 94.8314 45.8738 92.4683C46.9286 91.1897 47.8577 90.2229 48.2181 90.4274C49.3158 91.4773 44.5578 98.9098 43.9495 99.8558ZM36.5166 94.7933C36.877 93.6845 37.0853 92.7143 36.6257 92.8217C34.45 93.5771 33.6499 96.9624 33.6499 99.1627C33.6341 99.5596 33.681 99.9565 33.7887 100.337H33.8185C35.0154 98.8266 35.8718 96.7996 36.5166 94.7933Z" fill="#255296"/>
<path d="M59.6186 86.0923C59.1657 89.1069 57.3703 98.0952 53.6968 99.7619C51.6203 100.559 50.1192 98.4695 49.8977 97.8873C49.3852 96.5464 48.2213 91.0577 48.6379 88.4347C48.8429 87.1734 50.6218 85.4929 51.4418 88.4347C51.9047 90.3647 52.1791 93.6323 52.8636 95.4861C53.0586 95.1188 53.2339 94.8208 53.4323 94.4846C55.0855 91.6884 56.2923 88.6183 58.1903 85.4097C59.6715 82.9218 59.9724 83.5836 59.6186 86.0923Z" fill="#255296"/>
<path d="M73.7604 90.9473C72.2957 92.8357 70.6953 94.5371 68.8536 95.6909C65.6232 97.4235 62.3995 96.3493 61.9531 91.772C61.6952 87.7525 63.527 84.2424 66.3837 82.8703C69.1678 81.7095 72.666 82.1565 71.2442 86.4947C70.1167 88.9376 68.1461 90.3478 65.4877 90.3063C65.5102 90.6299 65.591 90.9462 65.7257 91.2384C67.2996 94.3292 74.2465 86.5952 76.4519 83.5356C76.5167 83.4396 76.609 83.3678 76.7154 83.3304C76.8218 83.293 76.9368 83.2921 77.0437 83.3277C77.8902 84.5127 74.4482 89.9494 73.7604 90.9473ZM65.5406 89.5821C66.1622 88.9514 67.4649 87.8495 67.8948 87.3159C71.7732 82.6 65.9043 85.8918 65.5406 89.5821V89.5821Z" fill="#255296"/>
<path d="M80.7171 94.9801C80.7171 95.2955 80.7568 95.5761 80.684 95.6731C79.8905 96.0578 78.8027 95.0183 78.0852 93.9822C76.8882 92.2982 76.7031 90.24 76.9048 88.1471C77.4107 82.3778 78.7365 76.5981 79.2193 70.6486C79.2953 69.7685 80.1054 70.5273 80.3666 70.8773C81.2594 72.1559 81.6661 75.0561 81.719 75.7284C82.2877 81.9966 79.9864 87.6342 80.7171 94.9801Z" fill="#255296"/>
</g>
</g>
<defs>
<radialGradient id="paint0_radial_83_1701" cx="0" cy="0" r="1" gradientUnits="userSpaceOnUse" gradientTransform="translate(29.3978 13.2504) scale(109.09 114.322)">
<stop stop-color="#FDD900"/>
<stop offset="0.52" stop-color="#F78F1F"/>
<stop offset="1" stop-color="#FDD900"/>
</radialGradient>
<linearGradient id="paint1_linear_83_1701" x1="10.2725" y1="42.7649" x2="66.9533" y2="49.2048" gradientUnits="userSpaceOnUse">
<stop stop-color="#F15A29"/>
<stop offset="1" stop-color="#F7941D"/>
</linearGradient>
<clipPath id="clip0_83_1701">
<rect width="82" height="114" fill="white"/>
</clipPath>
<clipPath id="clip1_83_1701">
<rect width="82" height="114" fill="white"/>
</clipPath>
</defs>
</svg>
