<?xml version="1.0" standalone="no"?>
<!DOCTYPE svg PUBLIC "-//W3C//DTD SVG 1.1//EN" "http://www.w3.org/Graphics/SVG/1.1/DTD/svg11.dtd" >
<svg xmlns="http://www.w3.org/2000/svg">
<metadata>Generated by IcoMoon</metadata>
<defs>
<font id="icomoon" horiz-adv-x="1024">
<font-face units-per-em="1024" ascent="960" descent="-64" />
<missing-glyph horiz-adv-x="1024" />
<glyph unicode="&#x20;" horiz-adv-x="512" d="" />
<glyph unicode="&#xe900;" glyph-name="airplane" d="M32.214 64.138h933.445v-114.301h-933.445v114.301zM993.667 599.165c-1.442 10.165-5.007 19.913-10.461 28.608-5.458 8.693-12.687 16.143-21.213 21.861-8.524 5.718-18.161 9.576-28.276 11.322s-20.488 1.345-30.438-1.182l-260.926-81.422-338.972 367.81-94.817-29.17 203.416-409.6-243.933-76.274-96.81 88.009-71.237-22.141 89.392-180.611 37.805-75.997 78.599 24.576 735.287 228.49c20.126 8.209 36.568 23.475 46.249 42.936 9.678 19.459 11.931 41.782 6.335 62.785z" />
<glyph unicode="&#xe901;" glyph-name="arrow-right" d="M5.252 394.267v107.466h807.155l-251.139 251.142 76.218 76.219 381.092-381.093-381.092-381.092-76.218 76.218 251.139 251.141h-807.155z" />
<glyph unicode="&#xe902;" glyph-name="calendar" d="M358.4 499.2v-102.4h-102.4v102.4h102.4zM563.2 499.2v-102.4h-102.4v102.4h102.4zM768 499.2v-102.4h-102.4v102.4h102.4zM870.4 857.6c27.159 0 53.204-10.789 72.407-29.992 19.205-19.204 29.993-45.25 29.993-72.408v-716.8c0-27.159-10.788-53.204-29.993-72.407-19.203-19.205-45.248-29.993-72.407-29.993h-716.8c-27.158 0-53.204 10.788-72.408 29.993-19.204 19.203-29.992 45.248-29.992 72.407v716.8c0 27.158 10.789 53.204 29.992 72.408s45.25 29.992 72.408 29.992h51.2v102.4h102.4v-102.4h409.6v102.4h102.4v-102.4h51.2zM870.4 38.4v563.2h-716.8v-563.2h716.8zM358.4 294.4v-102.4h-102.4v102.4h102.4zM563.2 294.4v-102.4h-102.4v102.4h102.4zM768 294.4v-102.4h-102.4v102.4h102.4z" />
<glyph unicode="&#xe903;" glyph-name="calendar-euro" d="M918.684 696.502c-24.334 0-44.379-7.378-60.137-22.135-15.758-14.549-25.928-35.748-30.518-63.599h120.574v-54.869h-125.061l-0.598-10.911v-14.654l0.598-10.287h106.212v-55.494h-101.127c10.173-50.504 42.186-75.757 96.042-75.757 28.523 0 55.948 5.923 82.276 17.771v-79.809c-23.138-12.262-52.359-18.395-87.661-18.395-48.868 0-89.060 13.822-120.574 41.463-31.516 27.643-51.363 65.885-59.541 114.728h-40.988v55.494h35.305c-0.798 4.78-1.196 11.222-1.196 19.328l0.598 16.524h-34.707v54.869h39.792c7.38 50.297 27.227 89.994 59.539 119.092 32.314 29.305 72.704 43.958 121.172 43.958 37.499 0 72.604-8.521 105.316-25.564l-29.321-72.328c-13.761 6.443-26.626 11.431-38.595 14.964-11.967 3.741-24.434 5.612-37.399 5.612zM0 183.291c0-16.202 7.353-31.739 20.442-43.199s30.843-17.901 49.36-17.911h512.033c18.509 0.009 36.257 6.447 49.345 17.899 13.089 11.45 20.445 26.98 20.457 43.173v346.2h-651.636v-346.163zM465.485 432.724c0.009 4.042 1.848 7.917 5.111 10.778 3.263 2.863 7.687 4.48 12.309 4.499h58.175c4.627-0.009 9.062-1.622 12.335-4.485s5.115-6.744 5.125-10.792v-50.902c-0.009-4.047-1.853-7.929-5.125-10.792s-7.708-4.475-12.335-4.485h-58.175c-4.629 0.009-9.062 1.622-12.335 4.485s-5.115 6.744-5.127 10.792l0.042 50.902zM465.485 269.815c0.009 4.047 1.853 7.929 5.125 10.792s7.708 4.475 12.335 4.485h58.177c4.627-0.009 9.062-1.622 12.335-4.485s5.115-6.744 5.125-10.792v-50.902c-0.009-4.047-1.853-7.929-5.125-10.792s-7.708-4.475-12.335-4.485h-58.217c-4.629 0.009-9.062 1.622-12.335 4.485s-5.115 6.744-5.127 10.792l0.042 50.902zM279.291 432.724c0.009 4.047 1.853 7.929 5.125 10.792s7.708 4.475 12.335 4.485h58.175c4.622-0.009 9.051-1.617 12.321-4.473 3.272-2.856 5.12-6.726 5.141-10.768v-50.9c-0.012-4.049-1.855-7.929-5.127-10.792s-7.706-4.475-12.335-4.485h-58.175c-4.627 0.009-9.062 1.622-12.335 4.485s-5.115 6.742-5.125 10.792v50.865zM279.291 269.815c0.009 4.047 1.853 7.929 5.125 10.792s7.708 4.475 12.335 4.485h58.175c4.622-0.009 9.051-1.617 12.321-4.473 3.272-2.856 5.12-6.726 5.141-10.768v-50.9c-0.012-4.049-1.855-7.929-5.127-10.792s-7.706-4.475-12.335-4.485h-58.175c-4.627 0.009-9.062 1.622-12.335 4.485s-5.115 6.742-5.125 10.792v50.865zM93.097 432.724c0.011 4.047 1.854 7.929 5.126 10.792s7.707 4.475 12.335 4.485h58.175c4.628-0.009 9.062-1.622 12.335-4.485s5.115-6.744 5.126-10.792v-50.902c-0.011-4.047-1.854-7.929-5.126-10.792s-7.707-4.475-12.335-4.485h-58.175c-4.628 0.009-9.062 1.622-12.335 4.485s-5.115 6.744-5.126 10.792v50.902zM93.097 269.815c0.011 4.047 1.854 7.929 5.126 10.792s7.707 4.475 12.335 4.485h58.175c4.628-0.009 9.062-1.622 12.335-4.485s5.115-6.744 5.126-10.792v-50.902c-0.011-4.047-1.854-7.929-5.126-10.792s-7.707-4.475-12.335-4.485h-58.175c-4.628 0.009-9.062 1.622-12.335 4.485s-5.115 6.744-5.126 10.792v50.902zM581.834 692.364h-69.844v61.109c-0.021 5.39-2.479 10.554-6.835 14.365-4.354 3.811-10.256 5.961-16.419 5.98h-46.548c-6.16-0.019-12.062-2.169-16.419-5.98s-6.812-8.975-6.835-14.365v-61.109h-186.193v61.109c-0.021 5.396-2.484 10.566-6.849 14.378s-10.278 5.958-16.445 5.967h-46.548c-6.161-0.019-12.062-2.169-16.419-5.98s-6.813-8.975-6.835-14.365v-61.109h-69.843c-18.509-0.010-36.257-6.447-49.345-17.898s-20.446-26.98-20.457-43.174v-61.109h651.636v61.109c-0.012 16.195-7.368 31.723-20.457 43.174s-30.836 17.889-49.345 17.898z" />
<glyph unicode="&#xe904;" glyph-name="check" d="M341.323 32.104l-326.105 326.105 148.611 148.611 177.494-178.018 518.827 519.353 148.611-148.611-667.438-667.439z" />
<glyph unicode="&#xe905;" glyph-name="check-circle" d="M512.013 960.006c-282.317 0-512-229.683-512-512.001s229.683-512 512-512 512 229.683 512 512c0 282.318-229.683 512.001-512 512.001zM409.664 222.060l-190.106 189.696 72.295 72.499 117.709-117.504 271.053 271.053 72.397-72.397-343.347-343.347z" />
<glyph unicode="&#xe906;" glyph-name="chevron-down" d="M902.827 760.32l-390.827-390.827-391.68 390.827-120.32-120.32 512-512 512 512-121.173 120.32z" />
<glyph unicode="&#xe907;" glyph-name="clock" d="M512 960c-281.6 0-512-230.4-512-512s230.4-512 512-512c281.6 0 512 230.4 512 512s-230.4 512-512 512zM732.16 284.16l-271.36 148.48v271.36h76.8v-225.28l230.4-128-35.84-66.56z" />
<glyph unicode="&#xe908;" glyph-name="close" d="M1024 773.76l-186.24 186.24-325.76-325.76-325.76 325.76-186.24-186.24 325.76-325.76-325.76-325.76 186.24-186.24 325.76 325.76 325.76-325.76 186.24 186.24-325.76 325.76 325.76 325.76z" />
<glyph unicode="&#xe909;" glyph-name="drop-down" d="M0 704l512-512 512 512h-1024z" />
<glyph unicode="&#xe90a;" glyph-name="exit" d="M403.342 243.769l80.213-80.213 284.444 284.444-284.444 284.444-80.213-80.213 146.773-147.342h-550.116v-113.778h550.116l-146.773-147.342zM910.222 960h-796.444c-30.176 0-59.116-11.987-80.453-33.325s-33.325-50.277-33.325-80.453v-227.556h113.778v227.556h796.444v-796.444h-796.444v227.556h-113.778v-227.556c0-30.177 11.987-59.116 33.325-80.452 21.338-21.339 50.277-33.326 80.453-33.326h796.444c62.578 0 113.778 51.2 113.778 113.778v796.444c0 62.578-51.2 113.778-113.778 113.778z" />
<glyph unicode="&#xe90b;" glyph-name="fast-time" d="M646.737 91.357c-77.822 0-152.457 30.944-207.484 86.026-55.029 55.079-85.942 129.784-85.942 207.679s30.913 152.602 85.942 207.681c55.027 55.082 129.662 86.025 207.484 86.025s152.457-30.943 207.484-86.025c55.029-55.079 85.942-129.786 85.942-207.681s-30.913-152.6-85.942-207.679c-55.027-55.082-129.662-86.026-207.484-86.026zM941.42 620.446l59.525 59.581c-18.863 21.399-37.726 40.699-59.106 59.161l-59.523-60.419c-64.974 52.867-146.713 83.916-235.58 83.916-100.057 0-196.015-39.785-266.766-110.603-70.749-70.819-110.497-166.868-110.497-267.020 0-100.15 39.748-196.201 110.497-267.016 70.751-70.818 166.71-110.604 266.766-110.604 209.591 0 377.263 169.091 377.263 377.62 0 88.952-31.020 170.77-82.58 235.384zM604.82 343.104h83.835v251.749h-83.835v-251.749zM772.491 888.558h-251.509v-83.916h251.509v83.916zM114.971 297.572h114.975v-86.314h-114.975v86.314zM57.497 585.283h172.463v-86.314h-172.463v86.314zM0 441.42h201.207v-86.314h-201.207v86.314z" />
<glyph unicode="&#xe90c;" glyph-name="food" d="M222.138 959.954c-54.041 1.117-106.564-17.916-147.344-53.393s-66.9-84.86-73.275-138.535c-6.374-53.675 7.453-107.803 38.789-151.843 31.337-44.043 77.941-74.849 130.74-86.42l-36.643-503.974c0.106-8.74 2.024-17.364 5.632-25.323 3.608-7.962 8.828-15.089 15.33-20.931 6.502-5.84 14.145-10.27 22.446-13.008s17.079-3.725 25.781-2.898h36.919c8.715-0.852 17.511 0.116 25.832 2.842 8.321 2.729 15.984 7.154 22.504 12.996 6.52 5.845 11.757 12.98 15.374 20.953 3.62 7.973 5.541 16.614 5.646 25.368l-36.643 503.974c52.615 11.746 98.999 42.598 130.165 86.583 31.168 43.988 44.904 97.975 38.544 151.508s-32.361 102.8-72.97 138.259c-40.606 35.459-92.927 54.586-146.828 53.675v0.166zM966.282 959.954l-61.495-311.352h-46.108l-30.775 311.352h-30.775l-30.775-311.352h-46.108l-61.44 311.352h-30.775v-404.785c0.816-9.006 5.15-17.328 12.061-23.162 6.911-5.831 15.842-8.707 24.858-8.001h96.090l-36.255-498.162c0.105-8.751 2.026-17.383 5.64-25.354 3.614-7.968 8.845-15.1 15.36-20.945 6.512-5.842 14.17-10.27 22.484-12.999 8.314-2.732 17.106-3.706 25.816-2.862h36.919c8.71-0.844 17.499 0.13 25.813 2.862 8.317 2.729 15.972 7.157 22.486 12.999 6.515 5.845 11.746 12.977 15.36 20.945 3.614 7.971 5.535 16.603 5.64 25.354l-36.255 498.162h96.090c9.006-0.706 17.931 2.161 24.839 7.982 6.911 5.823 11.25 14.128 12.080 23.126v404.84h-30.775z" />
<glyph unicode="&#xe90d;" glyph-name="house" d="M1024.013 550.395l-512 409.599-512-409.599v-102.4h102.4v-512h256v204.8c0 40.737 16.182 79.805 44.987 108.611 28.808 28.805 67.876 44.989 108.613 44.989s79.805-16.184 108.611-44.989c28.805-28.805 44.989-67.873 44.989-108.611v-204.8h256v512h102.4v102.4z" />
<glyph unicode="&#xe90e;" glyph-name="list" d="M157.54 236.951h-126.031c-4.164 0-8.287-0.824-12.131-2.429-3.843-1.602-7.331-3.952-10.261-6.911s-5.244-6.47-6.809-10.329c-1.565-3.86-2.349-7.99-2.307-12.154v-126.031c0-8.357 3.32-16.371 9.228-22.279 5.909-5.91 13.923-9.229 22.279-9.229h126.031c8.356 0 16.37 3.319 22.279 9.229 5.909 5.908 9.228 13.921 9.228 22.279v126.031c0.042 4.164-0.743 8.294-2.307 12.154s-3.879 7.37-6.809 10.329c-2.93 2.959-6.417 5.309-10.261 6.911-3.843 1.604-7.966 2.429-12.131 2.429zM157.54 868.103h-126.031c-8.356 0-16.37-3.32-22.279-9.228s-9.228-13.923-9.228-22.279v-126.031c0-8.356 3.32-16.37 9.228-22.279s13.923-9.228 22.279-9.228h126.031c8.356 0 16.37 3.32 22.279 9.228s9.228 13.923 9.228 22.279v126.031c0 8.356-3.32 16.37-9.228 22.279s-13.923 9.228-22.279 9.228zM157.54 552.501h-126.031c-8.356 0-16.37-3.319-22.279-9.229-5.909-5.908-9.228-13.921-9.228-22.279v-126.031c0-8.357 3.32-16.371 9.228-22.279 5.909-5.91 13.923-9.229 22.279-9.229h126.031c8.356 0 16.37 3.319 22.279 9.229 5.909 5.908 9.228 13.921 9.228 22.279v126.031c0 8.357-3.32 16.371-9.228 22.279-5.909 5.91-13.923 9.229-22.279 9.229zM978.316 205.128h-631.152c-8.357 0-16.371-3.319-22.281-9.229-5.908-5.908-9.227-13.921-9.227-22.279v-63.015c0-4.138 0.814-8.234 2.397-12.057s3.904-7.297 6.829-10.222c2.928-2.928 6.399-5.246 10.222-6.832 3.823-1.583 7.922-2.397 12.060-2.397h631.152c4.135 0 8.234 0.814 12.057 2.397 3.823 1.586 7.297 3.904 10.222 6.832 2.925 2.925 5.246 6.399 6.829 10.222s2.4 7.919 2.4 12.057v63.015c0 4.138-0.817 8.234-2.4 12.057s-3.904 7.297-6.829 10.222c-2.925 2.928-6.399 5.249-10.222 6.832s-7.922 2.397-12.057 2.397zM978.316 836.28h-631.152c-8.357 0-16.371-3.32-22.281-9.228-5.908-5.909-9.227-13.923-9.227-22.279v-63.015c0-8.356 3.319-16.37 9.227-22.279 5.91-5.909 13.924-9.228 22.281-9.228h631.152c4.135 0 8.234 0.815 12.057 2.398s7.297 3.904 10.222 6.83c2.925 2.926 5.246 6.399 6.829 10.222s2.4 7.92 2.4 12.057v63.015c0.034 4.16-0.756 8.285-2.324 12.138s-3.883 7.358-6.814 10.311c-2.928 2.954-6.412 5.298-10.253 6.898-3.839 1.6-7.958 2.423-12.117 2.423v-0.263zM978.316 520.678h-631.152c-8.357 0-16.371-3.319-22.281-9.229-5.908-5.908-9.227-13.921-9.227-22.279v-63.015c0-8.357 3.319-16.371 9.227-22.279 5.91-5.91 13.924-9.229 22.281-9.229h631.152c4.135 0 8.234 0.814 12.057 2.397 3.823 1.586 7.297 3.904 10.222 6.832 2.925 2.925 5.246 6.399 6.829 10.222s2.4 7.919 2.4 12.057v63.015c0.034 4.159-0.756 8.284-2.324 12.138-1.568 3.852-3.883 7.357-6.814 10.311-2.928 2.954-6.412 5.299-10.253 6.898-3.839 1.599-7.958 2.423-12.117 2.423v-0.263z" />
<glyph unicode="&#xe90f;" glyph-name="lock" horiz-adv-x="780" d="M682.667 618.667h-48.762v97.524c0 134.583-109.227 243.81-243.81 243.81s-243.81-109.227-243.81-243.81v-97.524h-48.762c-53.638 0-97.524-43.886-97.524-97.524v-487.619c0-53.638 43.886-97.524 97.524-97.524h585.143c53.638 0 97.524 43.886 97.524 97.524v487.619c0 53.638-43.886 97.524-97.524 97.524zM390.095 179.81c-53.638 0-97.524 43.886-97.524 97.524s43.886 97.524 97.524 97.524c53.638 0 97.524-43.886 97.524-97.524s-43.886-97.524-97.524-97.524zM541.257 618.667h-302.324v97.524c0 83.383 67.779 151.162 151.162 151.162s151.162-67.779 151.162-151.162v-97.524z" />
<glyph unicode="&#xe910;" glyph-name="mail" d="M921.6 857.6h-819.2c-56.32 0-101.888-46.080-101.888-102.4l-0.512-614.4c0-56.32 46.080-102.4 102.4-102.4h819.2c56.32 0 102.4 46.080 102.4 102.4v614.4c0 56.32-46.080 102.4-102.4 102.4zM921.6 652.8l-409.6-256-409.6 256v102.4l409.6-256 409.6 256v-102.4z" />
<glyph unicode="&#xe911;" glyph-name="menu" d="M23.227 510.061h744.726v-124.123h-744.726v124.123zM23.227 820.364h992.969v-124.121h-992.969v124.121zM23.227 75.636h449.009v124.12h-449.009v-124.12z" />
<glyph unicode="&#xe912;" glyph-name="messanger" d="M560.23 324.454l-131.072 136.192-252.518-139.622 276.787 293.683 131.072-136.192 252.416 139.622-276.685-293.683zM506.829 960c-279.91 0-506.829-212.173-506.829-473.958 0-148.89 73.421-281.754 188.314-368.64v-181.402l172.954 95.949c46.080-12.902 94.976-19.866 145.562-19.866 279.962 0 506.88 212.224 506.88 473.958 0 261.786-226.918 473.958-506.88 473.958z" />
<glyph unicode="&#xe913;" glyph-name="minus-circle" d="M512 960c-282.743 0-512-229.257-512-512s229.257-512 512-512c282.743 0 512 229.257 512 512s-229.257 512-512 512zM731.429 420.571c0-5.027-4.116-9.143-9.143-9.143h-420.571c-5.030 0-9.143 4.116-9.143 9.143v54.857c0 5.027 4.113 9.143 9.143 9.143h420.571c5.027 0 9.143-4.116 9.143-9.143v-54.857z" />
<glyph unicode="&#xe914;" glyph-name="offer" d="M870.687 448.632l65.93 113.948-113.966 65.874v131.355h-131.313l-65.846 113.962-114.053-65.924-114.028 65.968-65.897-114.007h-131.303v-131.304l-113.989-65.887 65.964-114.002-65.977-114.025 113.951-65.866v-131.302h131.354l65.889-113.989 113.981 65.951 114.071-65.935 65.818 113.974h131.325v131.302l113.997 65.892-65.91 114.015zM609.198-55.857l-97.792 56.525-97.69-56.525c-7.885-4.557-16.742-6.912-25.651-6.912-8.978 0.051-17.787 2.437-25.562 6.927-7.772 4.488-14.246 10.924-18.778 18.673l-56.525 97.792h-112.641c-13.579 0-26.602 5.394-36.204 14.994-9.602 9.603-14.996 22.625-14.996 36.206v112.589l-97.792 56.525c-11.714 6.845-20.247 18.043-23.738 31.155-3.491 13.11-1.657 27.069 5.102 38.835l56.525 97.69-56.525 97.69c-3.385 5.816-5.588 12.247-6.481 18.918-0.893 6.674-0.458 13.455 1.278 19.96 1.737 6.502 4.741 12.6 8.841 17.938 4.1 5.34 9.214 9.815 15.049 13.174l97.792 56.525v112.588c0 13.579 5.394 26.602 14.996 36.204s22.625 14.996 36.204 14.996h112.589l56.525 97.792c6.789 11.759 17.971 20.34 31.089 23.854 13.115 3.514 27.090 1.674 38.851-5.115l97.792-56.576 97.792 56.525c5.816 3.382 12.247 5.577 18.916 6.456 6.671 0.879 13.45 0.425 19.945-1.336 13.092-3.559 24.259-12.13 31.078-23.859l56.474-97.741h112.589c13.578 0 26.601-5.394 36.204-14.996s14.996-22.625 14.996-36.204v-112.639l97.792-56.525c11.75-6.799 20.319-17.987 23.823-31.101s1.659-27.085-5.135-38.838l-56.525-97.69 56.474-97.69c3.372-5.824 5.563-12.252 6.449-18.921s0.448-13.448-1.288-19.948c-1.736-6.5-4.736-12.595-8.827-17.935-4.093-5.34-9.198-9.82-15.022-13.187l-97.792-56.525v-112.589c0-13.581-5.394-26.604-14.996-36.206-9.603-9.6-22.625-14.994-36.204-14.994h-112.589l-56.474-97.792c-6.81-11.74-17.994-20.301-31.107-23.805-13.112-3.502-27.077-1.664-38.833 5.117zM383.406 705.128c20.375-0.007 39.913-8.106 54.316-22.519s22.49-33.956 22.484-54.331c-0.008-20.378-8.108-39.916-22.52-54.318s-33.956-22.49-54.331-22.482c-20.375 0.005-39.913 8.108-54.318 22.518-14.403 14.413-22.49 33.956-22.482 54.333 0.005 20.375 8.108 39.913 22.52 54.316 14.41 14.403 33.956 22.49 54.331 22.483zM398.766 213.609l-81.92 61.389 307.2 409.6 81.92-61.389-307.2-409.6zM639.406 193.129c-10.089 0.003-20.078 1.992-29.399 5.857-9.318 3.863-17.787 9.526-24.919 16.66-7.13 7.137-12.787 15.608-16.645 24.929-3.858 9.324-5.842 19.315-5.837 29.404 0.003 10.089 1.994 20.078 5.857 29.396 3.863 9.321 9.526 17.787 16.663 24.919 7.135 7.132 15.606 12.787 24.929 16.645 9.321 3.858 19.313 5.842 29.402 5.839 20.375-0.008 39.913-8.108 54.316-22.52s22.49-33.956 22.484-54.331c-0.008-20.378-8.108-39.916-22.52-54.318s-33.956-22.49-54.331-22.482z" />
<glyph unicode="&#xe915;" glyph-name="payment-card" d="M921.6 857.6h-819.2c-56.832 0-101.888-45.568-101.888-102.4l-0.512-614.4c0-56.832 45.568-102.4 102.4-102.4h819.2c56.832 0 102.4 45.568 102.4 102.4v614.4c0 56.832-45.568 102.4-102.4 102.4zM921.6 140.8h-819.2v307.2h819.2v-307.2zM921.6 652.8h-819.2v102.4h819.2v-102.4z" />
<glyph unicode="&#xe916;" glyph-name="phone" d="M994.796 236.405l-224.003 96.003c-9.569 4.079-20.204 4.938-30.305 2.449s-19.118-8.192-25.697-16.25l-99.2-121.202c-155.688 73.407-280.983 198.699-354.387 354.386l121.203 99.203c8.073 6.565 13.787 15.585 16.279 25.688 2.489 10.105 1.618 20.745-2.48 30.312l-96 224.004c-4.497 10.312-12.453 18.731-22.494 23.806s-21.537 6.488-32.508 3.994l-208.003-48.001c-10.577-2.443-20.014-8.398-26.77-16.894s-10.433-19.032-10.431-29.887c0-513.009 415.807-928.016 928.017-928.016 10.857-0.006 21.399 3.669 29.898 10.425s14.458 16.196 16.902 26.775l48 208.006c2.478 11.022 1.035 22.565-4.079 32.64s-13.579 18.054-23.942 22.559z" />
<glyph unicode="&#xe917;" glyph-name="plus-circle" d="M512 960c-282.743 0-512-229.257-512-512s229.257-512 512-512c282.743 0 512 229.257 512 512s-229.257 512-512 512zM731.429 420.571c0-5.027-4.116-9.143-9.143-9.143h-173.714v-173.714c0-5.027-4.116-9.143-9.143-9.143h-54.857c-5.027 0-9.143 4.116-9.143 9.143v173.714h-173.714c-5.030 0-9.143 4.116-9.143 9.143v54.857c0 5.027 4.113 9.143 9.143 9.143h173.714v173.714c0 5.030 4.116 9.143 9.143 9.143h54.857c5.027 0 9.143-4.113 9.143-9.143v-173.714h173.714c5.027 0 9.143-4.116 9.143-9.143v-54.857z" />
<glyph unicode="&#xe918;" glyph-name="point" d="M512 473.6c-33.948 0-66.506 13.486-90.509 37.491-24.006 24.003-37.491 56.561-37.491 90.509s13.486 66.506 37.491 90.509c24.003 24.006 56.561 37.491 90.509 37.491s66.506-13.486 90.509-37.491c24.005-24.003 37.491-56.561 37.491-90.509 0-16.809-3.31-33.454-9.743-48.983s-15.862-29.64-27.748-41.526c-11.886-11.886-25.997-21.315-41.526-27.748s-32.174-9.743-48.983-9.743zM512 960c-95.053 0-186.214-37.76-253.427-104.973s-104.973-158.374-104.973-253.427c0-268.8 358.4-665.6 358.4-665.6s358.4 396.8 358.4 665.6c0 95.053-37.76 186.214-104.973 253.427s-158.374 104.973-253.427 104.973z" />
<glyph unicode="&#xe919;" glyph-name="search" d="M980.272 58.326l-188.195 187.641c60.72 77.356 93.666 172.882 93.544 271.222 0 87.58-25.971 173.192-74.627 246.012s-117.813 129.576-198.728 163.091c-80.913 33.515-169.945 42.284-255.842 25.198s-164.799-59.26-226.727-121.188c-61.928-61.928-104.102-140.83-121.188-226.727s-8.317-174.93 25.198-255.842c33.516-80.915 90.272-150.071 163.091-198.728s158.433-74.627 246.012-74.627c98.34-0.122 193.865 32.823 271.222 93.544l187.641-188.195c5.145-5.189 11.267-9.307 18.014-12.116 6.745-2.809 13.979-4.257 21.285-4.257s14.541 1.447 21.288 4.257c6.745 2.809 12.866 6.927 18.011 12.116 5.189 5.145 9.307 11.267 12.116 18.011 2.809 6.747 4.257 13.982 4.257 21.288s-1.447 14.541-4.257 21.285c-2.809 6.747-6.927 12.869-12.116 18.014zM110.703 517.189c0 65.685 19.478 129.893 55.97 184.509 36.493 54.615 88.361 97.182 149.045 122.319s127.46 31.713 191.884 18.899c64.423-12.815 123.6-44.445 170.045-90.891s78.076-105.623 90.89-170.044c12.817-64.423 6.238-131.199-18.897-191.884-25.138-60.684-67.706-112.554-122.318-149.045-54.615-36.493-118.826-55.971-184.511-55.971-88.081 0-172.553 34.99-234.836 97.272s-97.272 146.756-97.272 234.836z" />
<glyph unicode="&#xe91a;" glyph-name="settings" d="M1009.679 523.921l-111.556 33.3c-7.715 26.931-18.322 52.946-31.637 77.592l54.614 102.233c2.048 3.859 2.8 8.276 2.138 12.595-0.659 4.319-2.695 8.311-5.802 11.382l-79.59 79.922c-3.070 3.108-7.061 5.143-11.381 5.803-4.318 0.66-8.736-0.090-12.595-2.14l-101.566-54.28c-24.891 13.964-51.247 25.133-78.591 33.301l-33.3 110.226c-1.409 4.062-4.071 7.573-7.603 10.026-3.529 2.454-7.747 3.723-12.046 3.627h-112.558c-4.323-0.020-8.529-1.42-12.003-3.995s-6.034-6.192-7.31-10.324l-33.3-109.893c-27.573-8.125-54.157-19.294-79.258-33.301l-99.902 53.947c-3.859 2.049-8.276 2.8-12.595 2.14s-8.311-2.695-11.382-5.803l-80.921-78.923c-3.108-3.071-5.143-7.062-5.803-11.381s0.090-8.736 2.14-12.595l53.947-99.901c-13.984-24.996-25.153-51.465-33.301-78.923l-110.226-33.302c-4.132-1.276-7.749-3.836-10.324-7.31s-3.975-7.68-3.995-12.003v-112.558c0.020-4.323 1.42-8.529 3.995-12.003s6.192-6.034 10.324-7.31l110.892-33.3c8.237-27.001 19.404-53.021 33.301-77.592l-54.613-104.565c-2.049-3.859-2.8-8.274-2.14-12.595 0.66-4.318 2.695-8.309 5.803-11.381l79.589-79.587c3.071-3.109 7.063-5.145 11.382-5.804s8.736 0.092 12.595 2.14l102.9 54.946c24.341-13.135 50.019-23.629 76.593-31.302l33.3-112.225c1.276-4.131 3.836-7.747 7.31-10.322 3.474-2.577 7.68-3.976 12.003-3.996h112.558c4.323 0.020 8.529 1.419 12.003 3.996 3.474 2.575 6.034 6.191 7.31 10.322l33.302 112.558c26.347 7.715 51.797 18.207 75.926 31.302l103.564-55.279c3.859-2.048 8.277-2.8 12.595-2.14 4.321 0.659 8.312 2.695 11.381 5.804l79.59 79.587c3.107 3.072 5.142 7.063 5.802 11.381 0.662 4.321-0.090 8.736-2.138 12.595l-55.281 103.234c13.232 24.219 23.839 49.784 31.637 76.258l112.223 33.3c4.133 1.276 7.75 3.839 10.325 7.313s3.976 7.678 3.996 12.003v113.554c0.195 4.141-0.879 8.244-3.082 11.756s-5.427 6.266-9.241 7.892zM524.488 264.841c-36.225 0-71.638 10.742-101.756 30.867-30.121 20.125-53.595 48.73-67.459 82.197-13.861 33.465-17.488 70.291-10.422 105.822 7.068 35.528 24.511 68.163 50.126 93.776 25.615 25.615 58.251 43.060 93.778 50.126 35.528 7.068 72.354 3.442 105.822-10.422 33.467-13.861 62.072-37.339 82.197-67.457 20.125-30.121 30.867-65.531 30.867-101.756 0-48.575-19.296-95.162-53.645-129.511-34.349-34.346-80.933-53.643-129.509-53.643z" />
<glyph unicode="&#xe91b;" glyph-name="star" d="M796.672-38.392c-8.187-0.033-16.264 1.9-23.552 5.632l-261.12 136.704-261.12-136.704c-8.479-4.457-18.039-6.449-27.593-5.745s-18.719 4.076-26.452 9.728c-7.734 5.655-13.726 13.363-17.296 22.254s-4.574 18.604-2.899 28.035l51.2 288.256-210.944 204.8c-6.581 6.569-11.25 14.804-13.505 23.823-2.255 9.021-2.011 18.486 0.705 27.377 2.968 9.101 8.426 17.185 15.757 23.34s16.239 10.13 25.715 11.476l291.84 42.496 128.512 262.657c4.193 8.657 10.739 15.957 18.888 21.065 8.151 5.108 17.574 7.817 27.192 7.817s19.041-2.709 27.192-7.817c8.148-5.108 14.694-12.409 18.888-21.065l130.048-262.145 291.84-42.496c9.477-1.347 18.386-5.322 25.715-11.476 7.332-6.154 12.79-14.239 15.757-23.34 2.716-8.891 2.959-18.355 0.707-27.377-2.255-9.019-6.925-17.254-13.507-23.823l-210.944-204.8 51.2-288.256c1.828-9.597 0.87-19.52-2.757-28.593-3.63-9.073-9.779-16.916-17.723-22.607-9.272-6.497-20.434-9.738-31.744-9.216v0z" />
<glyph unicode="&#xe91c;" glyph-name="sun" d="M512.125 640.043c-37.982-0.011-75.11-11.281-106.689-32.384-31.576-21.106-56.183-51.095-70.713-86.178-14.527-35.086-18.324-73.688-10.906-110.93 7.418-37.239 25.714-71.444 52.577-98.29 26.863-26.849 61.084-45.127 98.341-52.531 37.254-7.404 75.87-3.598 110.962 10.934 35.092 14.535 65.084 39.142 86.187 70.716 21.1 31.573 32.364 68.693 32.364 106.664-0.091 50.904-20.363 99.698-56.374 135.686-36.014 35.988-84.827 56.24-135.748 56.314zM1005.119 479.047l-189.446 94.549 67.038 200.819c2.051 6.102 2.358 12.656 0.885 18.924-1.471 6.267-4.665 12-9.216 16.552-4.554 4.552-10.288 7.744-16.558 9.215-6.272 1.471-12.826 1.165-18.93-0.886l-200.886-66.958-94.865 189.554c-2.876 5.764-7.299 10.612-12.777 14.001s-11.796 5.184-18.239 5.184c-6.443 0-12.757-1.795-18.236-5.184s-9.902-8.237-12.777-14.001l-94.581-189.383-201.113 67.015c-6.104 2.051-12.66 2.357-18.93 0.886s-12.004-4.663-16.557-9.215c-4.554-4.552-7.746-10.284-9.218-16.552s-1.165-12.821 0.886-18.924l67.037-200.819-189.446-94.777c-5.766-2.873-10.615-7.296-14.006-12.774-3.39-5.476-5.186-11.787-5.186-18.23 0-6.44 1.796-12.752 5.186-18.23 3.39-5.476 8.24-9.899 14.006-12.774l189.446-94.606-67.037-201.045c-2.051-6.101-2.358-12.655-0.886-18.921 1.472-6.269 4.665-12.001 9.218-16.555 4.554-4.551 10.288-7.743 16.557-9.213 6.269-1.473 12.825-1.166 18.93 0.885l200.885 67.015 94.638-189.383c2.876-5.763 7.299-10.61 12.777-14 5.478-3.388 11.793-5.183 18.236-5.183s12.757 1.795 18.239 5.183c5.478 3.391 9.902 8.238 12.777 14l94.353 189.383 200.883-67.015c6.107-2.051 12.661-2.358 18.93-0.885 6.272 1.471 12.006 4.662 16.558 9.213 4.554 4.554 7.748 10.286 9.219 16.555 1.473 6.266 1.166 12.82-0.885 18.921l-67.038 200.818 189.446 94.606c5.828 2.819 10.752 7.216 14.208 12.689 3.459 5.473 5.313 11.804 5.356 18.278 0.040 6.471-1.732 12.828-5.12 18.344-3.388 5.518-8.255 9.975-14.046 12.868l0.284 0.057zM693.208 267.022c-35.814-35.8-81.445-60.183-131.12-70.059-49.675-9.879-101.166-4.81-147.959 14.566s-86.787 52.19-114.927 94.288c-28.139 42.098-43.158 91.594-43.158 142.225 0 50.634 15.019 100.127 43.158 142.225 28.14 42.101 68.133 74.911 114.927 94.288s98.284 24.446 147.959 14.568c49.675-9.877 95.306-34.258 131.12-70.062 23.78-23.771 42.641-51.994 55.512-83.052 12.868-31.058 19.493-64.35 19.493-97.968s-6.625-66.907-19.493-97.966c-12.871-31.061-31.733-59.281-55.512-83.055z" />
<glyph unicode="&#xe91d;" glyph-name="ticket" d="M102.4 857.6c-27.158 0-53.204-10.789-72.408-29.992s-29.992-45.25-29.992-72.408v-204.8c27.158 0 53.204-10.788 72.408-29.993 19.204-19.203 29.992-45.248 29.992-72.407s-10.789-53.204-29.992-72.407c-19.204-19.205-45.25-29.993-72.408-29.993v-204.8c0-27.159 10.789-53.204 29.992-72.407 19.204-19.205 45.25-29.993 72.408-29.993h819.2c27.159 0 53.204 10.788 72.407 29.993 19.205 19.203 29.993 45.248 29.993 72.407v204.8c-27.159 0-53.204 10.788-72.407 29.993-19.205 19.203-29.993 45.248-29.993 72.407s10.788 53.204 29.993 72.407c19.203 19.205 45.248 29.993 72.407 29.993v204.8c0 27.158-10.788 53.204-29.993 72.408-19.203 19.204-45.248 29.992-72.407 29.992h-819.2zM691.2 704l76.8-76.8-435.2-435.2-76.8 76.8 435.2 435.2zM348.672 701.952c50.176 0 90.624-40.448 90.624-90.624 0-24.036-9.549-47.086-26.542-64.082-16.996-16.993-40.046-26.542-64.082-26.542-50.176 0-90.624 40.448-90.624 90.624 0 24.035 9.549 47.086 26.542 64.081 16.996 16.995 40.046 26.543 64.082 26.543zM675.328 375.296c50.176 0 90.624-40.448 90.624-90.624 0-24.036-9.549-47.086-26.542-64.082-16.996-16.993-40.046-26.542-64.082-26.542-50.176 0-90.624 40.448-90.624 90.624 0 24.036 9.549 47.086 26.542 64.082 16.996 16.993 40.046 26.542 64.082 26.542z" />
<glyph unicode="&#xe91e;" glyph-name="user" d="M512 960c-282.624 0-512-229.376-512-512s229.376-512 512-512c282.624 0 512 229.376 512 512s-229.376 512-512 512zM259.584 126.464c22.016 46.080 156.16 91.136 252.416 91.136s230.912-45.056 252.416-91.136c-69.632-55.296-157.184-88.064-252.416-88.064s-182.784 32.768-252.416 88.064zM837.632 200.704c-73.216 89.088-250.88 119.296-325.632 119.296s-252.416-30.208-325.632-119.296c-54.392 70.971-83.901 157.878-83.968 247.296 0 225.792 183.808 409.6 409.6 409.6s409.6-183.808 409.6-409.6c0-93.184-31.744-178.688-83.968-247.296zM512 755.2c-99.328 0-179.2-79.872-179.2-179.2s79.872-179.2 179.2-179.2c99.328 0 179.2 79.872 179.2 179.2s-79.872 179.2-179.2 179.2zM512 499.2c-42.496 0-76.8 34.304-76.8 76.8s34.304 76.8 76.8 76.8c42.496 0 76.8-34.304 76.8-76.8s-34.304-76.8-76.8-76.8z" />
<glyph unicode="&#xe91f;" glyph-name="zoom" d="M607.805 576.205v-64.003c-0.013-6.362-2.547-12.461-7.050-16.96-4.499-4.499-10.598-7.034-16.96-7.046h-111.866v-112.019c-0.016-6.365-2.55-12.461-7.050-16.96s-10.598-7.034-16.963-7.050h-64.182c-6.365 0.016-12.461 2.55-16.963 7.050-4.499 4.499-7.034 10.595-7.050 16.96v111.846h-111.977c-6.364 0.016-12.462 2.55-16.962 7.050s-7.035 10.598-7.050 16.96v64.173c0.015 6.365 2.55 12.461 7.050 16.96s10.598 7.034 16.962 7.050h111.977v111.963c0.016 6.363 2.55 12.461 7.050 16.96 4.502 4.499 10.598 7.033 16.963 7.048h64.013c3.165 0.015 6.304-0.595 9.232-1.794 2.931-1.199 5.594-2.964 7.84-5.195s4.032-4.881 5.251-7.802c1.219-2.921 1.853-6.053 1.859-9.218v-111.963h112.035c6.333-0.061 12.39-2.614 16.851-7.107 4.464-4.496 6.976-10.566 6.989-16.902zM1009.917 6.72l-56.614-56.608c-4.445-4.47-9.728-8.022-15.549-10.442-5.818-2.422-12.061-3.67-18.365-3.67s-12.547 1.248-18.365 3.67c-5.821 2.419-11.104 5.971-15.549 10.442l-199.661 199.405c-4.47 4.486-8.010 9.811-10.413 15.67-2.4 5.859-3.619 12.134-3.584 18.467v32.598c-83.485-65.139-188.678-95.984-294.125-86.246-105.448 9.734-203.211 59.318-273.356 138.64s-107.39 182.406-104.141 288.237c3.25 105.832 46.749 206.439 121.629 281.309s175.501 118.363 281.349 121.612c105.846 3.249 208.944-33.99 288.278-104.126 79.331-70.135 128.922-167.885 138.659-273.316 9.738-105.434-21.114-210.611-86.259-294.083h32.605c6.333 0.035 12.608-1.184 18.467-3.584 5.862-2.403 11.187-5.942 15.67-10.413l199.434-199.405c8.973-9.082 13.994-21.338 13.971-34.102s-5.082-25.002-14.083-34.054zM687.862 544.176c0 53.795-15.952 106.385-45.846 151.115-29.891 44.73-72.378 79.593-122.086 100.18s-104.406 25.973-157.174 15.478c-52.771-10.495-101.244-36.401-139.289-74.44s-63.954-86.506-74.451-139.267c-10.496-52.765-5.109-107.453 15.481-157.155s55.458-92.182 100.194-122.070c44.736-29.888 97.332-45.84 151.137-45.84 35.728-0.022 71.11 6.998 104.122 20.662 33.011 13.661 63.005 33.696 88.266 58.96 25.261 25.261 45.293 55.254 58.95 88.266s20.672 68.39 20.643 104.112h0.054z" />
</font>
</defs>
</svg>
